<mxfile host="app.diagrams.net" agent="Mozilla/5.0 (Windows NT 10.0; Win64; x64) AppleWebKit/537.36 (KHTML, like Gecko) Chrome/137.0.0.0 Safari/537.36" version="27.1.3">
  <diagram name="Page-1" id="TmlJ8ZDIS8Gv8DOPQXdX">
    <mxGraphModel dx="1510" dy="1979" grid="1" gridSize="10" guides="1" tooltips="1" connect="1" arrows="1" fold="1" page="1" pageScale="1" pageWidth="827" pageHeight="1169" math="0" shadow="0">
      <root>
        <mxCell id="0" />
        <mxCell id="1" parent="0" />
        <mxCell id="NKwapGFbjfDaCdDW1xwW-1" value="frame" style="shape=umlFrame;whiteSpace=wrap;html=1;pointerEvents=0;" parent="1" vertex="1">
          <mxGeometry x="-80" y="-570" width="1130" height="4550" as="geometry" />
        </mxCell>
        <mxCell id="NKwapGFbjfDaCdDW1xwW-2" value="Administrador" style="shape=umlActor;verticalLabelPosition=bottom;verticalAlign=top;html=1;outlineConnect=0;" parent="1" vertex="1">
          <mxGeometry x="-340" y="410" width="200" height="400" as="geometry" />
        </mxCell>
        <mxCell id="NKwapGFbjfDaCdDW1xwW-3" value="CU09-Obtener todas las ausencias" style="ellipse;whiteSpace=wrap;html=1;" parent="1" vertex="1">
          <mxGeometry x="390" y="-490" width="120" height="80" as="geometry" />
        </mxCell>
        <mxCell id="NKwapGFbjfDaCdDW1xwW-4" value="CU03-Obtener ausencias por usuario" style="ellipse;whiteSpace=wrap;html=1;" parent="1" vertex="1">
          <mxGeometry x="390" y="-380" width="120" height="80" as="geometry" />
        </mxCell>
        <mxCell id="NKwapGFbjfDaCdDW1xwW-5" value="CU-8-Calculo minutos trabajados" style="ellipse;whiteSpace=wrap;html=1;" parent="1" vertex="1">
          <mxGeometry x="390" y="110" width="120" height="80" as="geometry" />
        </mxCell>
        <mxCell id="NKwapGFbjfDaCdDW1xwW-6" value="CU-4-Solicitar Ausencia" style="ellipse;whiteSpace=wrap;html=1;" parent="1" vertex="1">
          <mxGeometry x="390" y="-270" width="120" height="70" as="geometry" />
        </mxCell>
        <mxCell id="NKwapGFbjfDaCdDW1xwW-7" value="CU-4-Obteber todas las jornadas" style="ellipse;whiteSpace=wrap;html=1;" parent="1" vertex="1">
          <mxGeometry x="390" y="820" width="120" height="70" as="geometry" />
        </mxCell>
        <mxCell id="NKwapGFbjfDaCdDW1xwW-9" value="CU-4-Obtener jornadas" style="ellipse;whiteSpace=wrap;html=1;" parent="1" vertex="1">
          <mxGeometry x="390" y="900" width="120" height="70" as="geometry" />
        </mxCell>
        <mxCell id="NKwapGFbjfDaCdDW1xwW-11" value="CU-4-No corroborar jornadas" style="ellipse;whiteSpace=wrap;html=1;" parent="1" vertex="1">
          <mxGeometry x="390" y="1080" width="120" height="70" as="geometry" />
        </mxCell>
        <mxCell id="NKwapGFbjfDaCdDW1xwW-12" value="CU-5-Obtener todas las notificaciones" style="ellipse;whiteSpace=wrap;html=1;" parent="1" vertex="1">
          <mxGeometry x="390" y="1280" width="120" height="60" as="geometry" />
        </mxCell>
        <mxCell id="NKwapGFbjfDaCdDW1xwW-17" value="CU-4-Obtener todas las horas extras" style="ellipse;whiteSpace=wrap;html=1;" parent="1" vertex="1">
          <mxGeometry x="390" y="740" width="120" height="60" as="geometry" />
        </mxCell>
        <mxCell id="NKwapGFbjfDaCdDW1xwW-18" value="CU-4-Finalizar jorndas" style="ellipse;whiteSpace=wrap;html=1;" parent="1" vertex="1">
          <mxGeometry x="390" y="1180" width="120" height="70" as="geometry" />
        </mxCell>
        <mxCell id="NKwapGFbjfDaCdDW1xwW-19" value="CU-4- Corroborar jornadas" style="ellipse;whiteSpace=wrap;html=1;" parent="1" vertex="1">
          <mxGeometry x="390" y="990" width="120" height="70" as="geometry" />
        </mxCell>
        <mxCell id="NKwapGFbjfDaCdDW1xwW-20" value="" style="endArrow=classic;html=1;rounded=0;entryX=0;entryY=0.5;entryDx=0;entryDy=0;" parent="1" target="NKwapGFbjfDaCdDW1xwW-3" edge="1">
          <mxGeometry width="50" height="50" relative="1" as="geometry">
            <mxPoint x="-100" y="380" as="sourcePoint" />
            <mxPoint x="950" y="150" as="targetPoint" />
          </mxGeometry>
        </mxCell>
        <mxCell id="NKwapGFbjfDaCdDW1xwW-21" value="" style="endArrow=classic;html=1;rounded=0;entryX=0;entryY=0.5;entryDx=0;entryDy=0;" parent="1" target="NKwapGFbjfDaCdDW1xwW-4" edge="1">
          <mxGeometry width="50" height="50" relative="1" as="geometry">
            <mxPoint x="-90" y="380" as="sourcePoint" />
            <mxPoint x="950" y="150" as="targetPoint" />
          </mxGeometry>
        </mxCell>
        <mxCell id="NKwapGFbjfDaCdDW1xwW-22" value="" style="endArrow=classic;html=1;rounded=0;entryX=0;entryY=0.5;entryDx=0;entryDy=0;" parent="1" target="NKwapGFbjfDaCdDW1xwW-33" edge="1">
          <mxGeometry width="50" height="50" relative="1" as="geometry">
            <mxPoint x="-90" y="410" as="sourcePoint" />
            <mxPoint x="420" y="200" as="targetPoint" />
          </mxGeometry>
        </mxCell>
        <mxCell id="NKwapGFbjfDaCdDW1xwW-23" value="" style="endArrow=classic;html=1;rounded=0;entryX=0;entryY=0.5;entryDx=0;entryDy=0;" parent="1" target="NKwapGFbjfDaCdDW1xwW-6" edge="1">
          <mxGeometry width="50" height="50" relative="1" as="geometry">
            <mxPoint x="-90" y="390" as="sourcePoint" />
            <mxPoint x="420" y="200" as="targetPoint" />
          </mxGeometry>
        </mxCell>
        <mxCell id="NKwapGFbjfDaCdDW1xwW-24" value="" style="endArrow=classic;html=1;rounded=0;entryX=0;entryY=0.5;entryDx=0;entryDy=0;" parent="1" target="NKwapGFbjfDaCdDW1xwW-34" edge="1">
          <mxGeometry width="50" height="50" relative="1" as="geometry">
            <mxPoint x="-90" y="420" as="sourcePoint" />
            <mxPoint x="420" y="200" as="targetPoint" />
          </mxGeometry>
        </mxCell>
        <mxCell id="NKwapGFbjfDaCdDW1xwW-25" value="" style="endArrow=classic;html=1;rounded=0;entryX=0;entryY=0.5;entryDx=0;entryDy=0;" parent="1" target="NKwapGFbjfDaCdDW1xwW-35" edge="1">
          <mxGeometry width="50" height="50" relative="1" as="geometry">
            <mxPoint x="-90" y="430" as="sourcePoint" />
            <mxPoint x="420" y="510" as="targetPoint" />
          </mxGeometry>
        </mxCell>
        <mxCell id="NKwapGFbjfDaCdDW1xwW-26" value="" style="endArrow=classic;html=1;rounded=0;entryX=0;entryY=0.5;entryDx=0;entryDy=0;" parent="1" target="NKwapGFbjfDaCdDW1xwW-36" edge="1">
          <mxGeometry width="50" height="50" relative="1" as="geometry">
            <mxPoint x="-90" y="450" as="sourcePoint" />
            <mxPoint x="420" y="510" as="targetPoint" />
          </mxGeometry>
        </mxCell>
        <mxCell id="NKwapGFbjfDaCdDW1xwW-27" value="" style="endArrow=classic;html=1;rounded=0;entryX=0;entryY=0.5;entryDx=0;entryDy=0;" parent="1" target="NKwapGFbjfDaCdDW1xwW-5" edge="1">
          <mxGeometry width="50" height="50" relative="1" as="geometry">
            <mxPoint x="-90" y="440" as="sourcePoint" />
            <mxPoint x="420" y="720" as="targetPoint" />
          </mxGeometry>
        </mxCell>
        <mxCell id="NKwapGFbjfDaCdDW1xwW-28" value="" style="endArrow=classic;html=1;rounded=0;entryX=0;entryY=0.5;entryDx=0;entryDy=0;" parent="1" target="NKwapGFbjfDaCdDW1xwW-37" edge="1">
          <mxGeometry width="50" height="50" relative="1" as="geometry">
            <mxPoint x="-90" y="460" as="sourcePoint" />
            <mxPoint x="420" y="720" as="targetPoint" />
          </mxGeometry>
        </mxCell>
        <mxCell id="NKwapGFbjfDaCdDW1xwW-29" value="" style="endArrow=classic;html=1;rounded=0;entryX=0;entryY=0.5;entryDx=0;entryDy=0;" parent="1" target="NKwapGFbjfDaCdDW1xwW-38" edge="1">
          <mxGeometry width="50" height="50" relative="1" as="geometry">
            <mxPoint x="-90" y="470" as="sourcePoint" />
            <mxPoint x="420" y="720" as="targetPoint" />
          </mxGeometry>
        </mxCell>
        <mxCell id="NKwapGFbjfDaCdDW1xwW-30" value="" style="endArrow=classic;html=1;rounded=0;entryX=0;entryY=0.5;entryDx=0;entryDy=0;" parent="1" target="NKwapGFbjfDaCdDW1xwW-41" edge="1">
          <mxGeometry width="50" height="50" relative="1" as="geometry">
            <mxPoint x="-90" y="480" as="sourcePoint" />
            <mxPoint x="420" y="720" as="targetPoint" />
          </mxGeometry>
        </mxCell>
        <mxCell id="NKwapGFbjfDaCdDW1xwW-31" value="" style="endArrow=classic;html=1;rounded=0;entryX=0;entryY=0.5;entryDx=0;entryDy=0;" parent="1" target="NKwapGFbjfDaCdDW1xwW-46" edge="1">
          <mxGeometry width="50" height="50" relative="1" as="geometry">
            <mxPoint x="-90" y="490" as="sourcePoint" />
            <mxPoint x="420" y="830" as="targetPoint" />
          </mxGeometry>
        </mxCell>
        <mxCell id="NKwapGFbjfDaCdDW1xwW-33" value="CU-5-Aceptar Ausencia" style="ellipse;whiteSpace=wrap;html=1;" parent="1" vertex="1">
          <mxGeometry x="390" y="-170" width="120" height="70" as="geometry" />
        </mxCell>
        <mxCell id="NKwapGFbjfDaCdDW1xwW-34" value="CU-6-Rechazar Ausencia" style="ellipse;whiteSpace=wrap;html=1;" parent="1" vertex="1">
          <mxGeometry x="390" y="-70" width="120" height="70" as="geometry" />
        </mxCell>
        <mxCell id="NKwapGFbjfDaCdDW1xwW-35" value="CU-07-Calculo horas extras" style="ellipse;whiteSpace=wrap;html=1;" parent="1" vertex="1">
          <mxGeometry x="390" y="20" width="120" height="70" as="geometry" />
        </mxCell>
        <mxCell id="NKwapGFbjfDaCdDW1xwW-36" value="CU-9-Obtener minutos trabajados por empleado" style="ellipse;whiteSpace=wrap;html=1;" parent="1" vertex="1">
          <mxGeometry x="390" y="200" width="120" height="80" as="geometry" />
        </mxCell>
        <mxCell id="NKwapGFbjfDaCdDW1xwW-37" value="CU-10-Enviar mensajes" style="ellipse;whiteSpace=wrap;html=1;" parent="1" vertex="1">
          <mxGeometry x="390" y="290" width="120" height="60" as="geometry" />
        </mxCell>
        <mxCell id="NKwapGFbjfDaCdDW1xwW-38" value="CU-11-Obtener id Chat" style="ellipse;whiteSpace=wrap;html=1;" parent="1" vertex="1">
          <mxGeometry x="390" y="370" width="120" height="60" as="geometry" />
        </mxCell>
        <mxCell id="NKwapGFbjfDaCdDW1xwW-40" value="CU-4Obtener todas las estadisticas" style="ellipse;whiteSpace=wrap;html=1;" parent="1" vertex="1">
          <mxGeometry x="390" y="640" width="120" height="70" as="geometry" />
        </mxCell>
        <mxCell id="NKwapGFbjfDaCdDW1xwW-41" value="CU-11-Crear Chat" style="ellipse;whiteSpace=wrap;html=1;" parent="1" vertex="1">
          <mxGeometry x="390" y="460" width="120" height="60" as="geometry" />
        </mxCell>
        <mxCell id="NKwapGFbjfDaCdDW1xwW-46" value="CU-4-Obtener mensajes" style="ellipse;whiteSpace=wrap;html=1;" parent="1" vertex="1">
          <mxGeometry x="390" y="550" width="120" height="70" as="geometry" />
        </mxCell>
        <mxCell id="NKwapGFbjfDaCdDW1xwW-50" value="CU-5-Obtener notificaciones Empleado" style="ellipse;whiteSpace=wrap;html=1;" parent="1" vertex="1">
          <mxGeometry x="390" y="1360" width="120" height="80" as="geometry" />
        </mxCell>
        <mxCell id="NKwapGFbjfDaCdDW1xwW-51" value="CU-5-Obtener notificaciones Aspirante" style="ellipse;whiteSpace=wrap;html=1;" parent="1" vertex="1">
          <mxGeometry x="390" y="1470" width="120" height="80" as="geometry" />
        </mxCell>
        <mxCell id="NKwapGFbjfDaCdDW1xwW-52" value="CU-5-Obtener permisos" style="ellipse;whiteSpace=wrap;html=1;" parent="1" vertex="1">
          <mxGeometry x="390" y="1580" width="120" height="80" as="geometry" />
        </mxCell>
        <mxCell id="NKwapGFbjfDaCdDW1xwW-53" value="CU-5-Solicitar Permisos" style="ellipse;whiteSpace=wrap;html=1;" parent="1" vertex="1">
          <mxGeometry x="390" y="1674" width="120" height="80" as="geometry" />
        </mxCell>
        <mxCell id="NKwapGFbjfDaCdDW1xwW-54" value="CU-5-Solicitar permisos" style="ellipse;whiteSpace=wrap;html=1;" parent="1" vertex="1">
          <mxGeometry x="390" y="1790" width="120" height="80" as="geometry" />
        </mxCell>
        <mxCell id="NKwapGFbjfDaCdDW1xwW-55" value="CU-5-Aceptar permisos" style="ellipse;whiteSpace=wrap;html=1;" parent="1" vertex="1">
          <mxGeometry x="390" y="1900" width="120" height="80" as="geometry" />
        </mxCell>
        <mxCell id="NKwapGFbjfDaCdDW1xwW-56" value="CU-5-Rechazar permisos" style="ellipse;whiteSpace=wrap;html=1;" parent="1" vertex="1">
          <mxGeometry x="390" y="2010" width="120" height="80" as="geometry" />
        </mxCell>
        <mxCell id="NKwapGFbjfDaCdDW1xwW-57" value="CU-5-Obtener todos los permisos" style="ellipse;whiteSpace=wrap;html=1;" parent="1" vertex="1">
          <mxGeometry x="390" y="2120" width="120" height="80" as="geometry" />
        </mxCell>
        <mxCell id="NKwapGFbjfDaCdDW1xwW-58" value="CU-5-Obtener publicacion por tipo de contrato" style="ellipse;whiteSpace=wrap;html=1;" parent="1" vertex="1">
          <mxGeometry x="390" y="2220" width="120" height="80" as="geometry" />
        </mxCell>
        <mxCell id="NKwapGFbjfDaCdDW1xwW-59" value="CU-5-agregar publicacion" style="ellipse;whiteSpace=wrap;html=1;" parent="1" vertex="1">
          <mxGeometry x="390" y="2320" width="120" height="80" as="geometry" />
        </mxCell>
        <mxCell id="NKwapGFbjfDaCdDW1xwW-60" value="CU-5-actualizar publicacion" style="ellipse;whiteSpace=wrap;html=1;" parent="1" vertex="1">
          <mxGeometry x="390" y="2420" width="120" height="80" as="geometry" />
        </mxCell>
        <mxCell id="NKwapGFbjfDaCdDW1xwW-61" value="CU-5-eliminar publicacion" style="ellipse;whiteSpace=wrap;html=1;" parent="1" vertex="1">
          <mxGeometry x="390" y="2520" width="120" height="80" as="geometry" />
        </mxCell>
        <mxCell id="NKwapGFbjfDaCdDW1xwW-62" value="CU-5-Obtener todas las vacaciones" style="ellipse;whiteSpace=wrap;html=1;" parent="1" vertex="1">
          <mxGeometry x="390" y="2620" width="120" height="80" as="geometry" />
        </mxCell>
        <mxCell id="NKwapGFbjfDaCdDW1xwW-65" value="CU-5-Obtener mis vacaciones" style="ellipse;whiteSpace=wrap;html=1;" parent="1" vertex="1">
          <mxGeometry x="390" y="2720" width="120" height="80" as="geometry" />
        </mxCell>
        <mxCell id="NKwapGFbjfDaCdDW1xwW-67" value="CU-5-Solicitar vacaciones" style="ellipse;whiteSpace=wrap;html=1;" parent="1" vertex="1">
          <mxGeometry x="390" y="2820" width="120" height="80" as="geometry" />
        </mxCell>
        <mxCell id="NKwapGFbjfDaCdDW1xwW-68" value="CU-5-aceptar vacacion" style="ellipse;whiteSpace=wrap;html=1;" parent="1" vertex="1">
          <mxGeometry x="390" y="2920" width="120" height="80" as="geometry" />
        </mxCell>
        <mxCell id="NKwapGFbjfDaCdDW1xwW-69" value="CU-5-rechazar vacacion" style="ellipse;whiteSpace=wrap;html=1;" parent="1" vertex="1">
          <mxGeometry x="390" y="3020" width="120" height="80" as="geometry" />
        </mxCell>
        <mxCell id="NKwapGFbjfDaCdDW1xwW-83" value="" style="endArrow=classic;html=1;rounded=0;entryX=0.033;entryY=0.578;entryDx=0;entryDy=0;entryPerimeter=0;" parent="1" target="NKwapGFbjfDaCdDW1xwW-17" edge="1">
          <mxGeometry width="50" height="50" relative="1" as="geometry">
            <mxPoint x="-90" y="510" as="sourcePoint" />
            <mxPoint x="300" y="690" as="targetPoint" />
          </mxGeometry>
        </mxCell>
        <mxCell id="NKwapGFbjfDaCdDW1xwW-84" value="" style="endArrow=classic;html=1;rounded=0;entryX=0;entryY=0.429;entryDx=0;entryDy=0;entryPerimeter=0;" parent="1" target="NKwapGFbjfDaCdDW1xwW-7" edge="1">
          <mxGeometry width="50" height="50" relative="1" as="geometry">
            <mxPoint x="-90" y="520" as="sourcePoint" />
            <mxPoint x="300" y="690" as="targetPoint" />
          </mxGeometry>
        </mxCell>
        <mxCell id="NKwapGFbjfDaCdDW1xwW-85" value="" style="endArrow=classic;html=1;rounded=0;entryX=0;entryY=0.5;entryDx=0;entryDy=0;" parent="1" target="NKwapGFbjfDaCdDW1xwW-9" edge="1">
          <mxGeometry width="50" height="50" relative="1" as="geometry">
            <mxPoint x="-90" y="530" as="sourcePoint" />
            <mxPoint x="750" y="1070" as="targetPoint" />
          </mxGeometry>
        </mxCell>
        <mxCell id="NKwapGFbjfDaCdDW1xwW-86" value="" style="endArrow=classic;html=1;rounded=0;entryX=0;entryY=0.5;entryDx=0;entryDy=0;" parent="1" target="NKwapGFbjfDaCdDW1xwW-19" edge="1">
          <mxGeometry width="50" height="50" relative="1" as="geometry">
            <mxPoint x="-90" y="540" as="sourcePoint" />
            <mxPoint x="750" y="1070" as="targetPoint" />
          </mxGeometry>
        </mxCell>
        <mxCell id="NKwapGFbjfDaCdDW1xwW-87" value="" style="endArrow=classic;html=1;rounded=0;entryX=0;entryY=0.5;entryDx=0;entryDy=0;" parent="1" target="NKwapGFbjfDaCdDW1xwW-11" edge="1">
          <mxGeometry width="50" height="50" relative="1" as="geometry">
            <mxPoint x="-90" y="550" as="sourcePoint" />
            <mxPoint x="510" y="890" as="targetPoint" />
          </mxGeometry>
        </mxCell>
        <mxCell id="NKwapGFbjfDaCdDW1xwW-88" value="" style="endArrow=classic;html=1;rounded=0;entryX=0.323;entryY=0.103;entryDx=0;entryDy=0;entryPerimeter=0;" parent="1" target="NKwapGFbjfDaCdDW1xwW-18" edge="1">
          <mxGeometry width="50" height="50" relative="1" as="geometry">
            <mxPoint x="-90" y="560" as="sourcePoint" />
            <mxPoint x="510" y="890" as="targetPoint" />
          </mxGeometry>
        </mxCell>
        <mxCell id="NKwapGFbjfDaCdDW1xwW-89" value="" style="endArrow=classic;html=1;rounded=0;entryX=0;entryY=0;entryDx=0;entryDy=0;" parent="1" target="NKwapGFbjfDaCdDW1xwW-12" edge="1">
          <mxGeometry width="50" height="50" relative="1" as="geometry">
            <mxPoint x="-90" y="570" as="sourcePoint" />
            <mxPoint x="510" y="890" as="targetPoint" />
          </mxGeometry>
        </mxCell>
        <mxCell id="NKwapGFbjfDaCdDW1xwW-90" value="" style="endArrow=classic;html=1;rounded=0;entryX=0;entryY=0.5;entryDx=0;entryDy=0;" parent="1" target="NKwapGFbjfDaCdDW1xwW-50" edge="1">
          <mxGeometry width="50" height="50" relative="1" as="geometry">
            <mxPoint x="-90" y="580" as="sourcePoint" />
            <mxPoint x="360" y="1020" as="targetPoint" />
          </mxGeometry>
        </mxCell>
        <mxCell id="NKwapGFbjfDaCdDW1xwW-91" value="" style="endArrow=classic;html=1;rounded=0;entryX=0;entryY=0.5;entryDx=0;entryDy=0;" parent="1" target="NKwapGFbjfDaCdDW1xwW-51" edge="1">
          <mxGeometry width="50" height="50" relative="1" as="geometry">
            <mxPoint x="-90" y="590" as="sourcePoint" />
            <mxPoint x="180.00000000000819" y="1580" as="targetPoint" />
          </mxGeometry>
        </mxCell>
        <mxCell id="NKwapGFbjfDaCdDW1xwW-92" value="" style="endArrow=classic;html=1;rounded=0;entryX=0;entryY=0.5;entryDx=0;entryDy=0;" parent="1" target="NKwapGFbjfDaCdDW1xwW-52" edge="1">
          <mxGeometry width="50" height="50" relative="1" as="geometry">
            <mxPoint x="-90" y="600" as="sourcePoint" />
            <mxPoint x="360" y="1520" as="targetPoint" />
          </mxGeometry>
        </mxCell>
        <mxCell id="NKwapGFbjfDaCdDW1xwW-93" value="" style="endArrow=classic;html=1;rounded=0;entryX=0;entryY=0.5;entryDx=0;entryDy=0;" parent="1" target="NKwapGFbjfDaCdDW1xwW-53" edge="1">
          <mxGeometry width="50" height="50" relative="1" as="geometry">
            <mxPoint x="-90" y="610" as="sourcePoint" />
            <mxPoint x="360" y="1520" as="targetPoint" />
          </mxGeometry>
        </mxCell>
        <mxCell id="NKwapGFbjfDaCdDW1xwW-94" value="" style="endArrow=classic;html=1;rounded=0;entryX=0;entryY=0.5;entryDx=0;entryDy=0;" parent="1" target="NKwapGFbjfDaCdDW1xwW-54" edge="1">
          <mxGeometry width="50" height="50" relative="1" as="geometry">
            <mxPoint x="-90" y="640" as="sourcePoint" />
            <mxPoint x="360" y="1420" as="targetPoint" />
          </mxGeometry>
        </mxCell>
        <mxCell id="NKwapGFbjfDaCdDW1xwW-95" value="" style="endArrow=classic;html=1;rounded=0;entryX=0;entryY=0.5;entryDx=0;entryDy=0;" parent="1" target="NKwapGFbjfDaCdDW1xwW-55" edge="1">
          <mxGeometry width="50" height="50" relative="1" as="geometry">
            <mxPoint x="-100" y="660" as="sourcePoint" />
            <mxPoint x="360" y="1620" as="targetPoint" />
          </mxGeometry>
        </mxCell>
        <mxCell id="NKwapGFbjfDaCdDW1xwW-96" value="" style="endArrow=classic;html=1;rounded=0;entryX=0;entryY=0.5;entryDx=0;entryDy=0;" parent="1" target="NKwapGFbjfDaCdDW1xwW-56" edge="1">
          <mxGeometry width="50" height="50" relative="1" as="geometry">
            <mxPoint x="-100" y="690" as="sourcePoint" />
            <mxPoint x="360" y="2020" as="targetPoint" />
          </mxGeometry>
        </mxCell>
        <mxCell id="NKwapGFbjfDaCdDW1xwW-97" value="" style="endArrow=classic;html=1;rounded=0;entryX=0;entryY=0.5;entryDx=0;entryDy=0;" parent="1" target="NKwapGFbjfDaCdDW1xwW-57" edge="1">
          <mxGeometry width="50" height="50" relative="1" as="geometry">
            <mxPoint x="-100" y="760" as="sourcePoint" />
            <mxPoint x="390" y="1920" as="targetPoint" />
          </mxGeometry>
        </mxCell>
        <mxCell id="NKwapGFbjfDaCdDW1xwW-98" value="" style="endArrow=classic;html=1;rounded=0;entryX=0;entryY=0.5;entryDx=0;entryDy=0;" parent="1" target="NKwapGFbjfDaCdDW1xwW-58" edge="1">
          <mxGeometry width="50" height="50" relative="1" as="geometry">
            <mxPoint x="-110" y="780" as="sourcePoint" />
            <mxPoint x="390" y="2220" as="targetPoint" />
          </mxGeometry>
        </mxCell>
        <mxCell id="NKwapGFbjfDaCdDW1xwW-99" value="" style="endArrow=classic;html=1;rounded=0;entryX=0;entryY=0.5;entryDx=0;entryDy=0;" parent="1" target="NKwapGFbjfDaCdDW1xwW-59" edge="1">
          <mxGeometry width="50" height="50" relative="1" as="geometry">
            <mxPoint x="-120" y="790" as="sourcePoint" />
            <mxPoint x="390" y="2220" as="targetPoint" />
          </mxGeometry>
        </mxCell>
        <mxCell id="NKwapGFbjfDaCdDW1xwW-100" value="" style="endArrow=classic;html=1;rounded=0;entryX=0;entryY=0.5;entryDx=0;entryDy=0;" parent="1" target="NKwapGFbjfDaCdDW1xwW-60" edge="1">
          <mxGeometry width="50" height="50" relative="1" as="geometry">
            <mxPoint x="-130" y="810" as="sourcePoint" />
            <mxPoint x="390" y="2420" as="targetPoint" />
          </mxGeometry>
        </mxCell>
        <mxCell id="NKwapGFbjfDaCdDW1xwW-101" value="" style="endArrow=classic;html=1;rounded=0;entryX=0;entryY=0.5;entryDx=0;entryDy=0;" parent="1" target="NKwapGFbjfDaCdDW1xwW-61" edge="1">
          <mxGeometry width="50" height="50" relative="1" as="geometry">
            <mxPoint x="-140" y="820" as="sourcePoint" />
            <mxPoint x="390" y="2220" as="targetPoint" />
          </mxGeometry>
        </mxCell>
        <mxCell id="NKwapGFbjfDaCdDW1xwW-102" value="" style="endArrow=classic;html=1;rounded=0;entryX=0;entryY=0.5;entryDx=0;entryDy=0;" parent="1" target="NKwapGFbjfDaCdDW1xwW-62" edge="1">
          <mxGeometry width="50" height="50" relative="1" as="geometry">
            <mxPoint x="-160" y="820" as="sourcePoint" />
            <mxPoint x="390" y="2720" as="targetPoint" />
          </mxGeometry>
        </mxCell>
        <mxCell id="NKwapGFbjfDaCdDW1xwW-103" value="" style="endArrow=classic;html=1;rounded=0;entryX=0;entryY=0.5;entryDx=0;entryDy=0;" parent="1" target="NKwapGFbjfDaCdDW1xwW-65" edge="1">
          <mxGeometry width="50" height="50" relative="1" as="geometry">
            <mxPoint x="-170" y="830" as="sourcePoint" />
            <mxPoint x="390" y="2720" as="targetPoint" />
          </mxGeometry>
        </mxCell>
        <mxCell id="NKwapGFbjfDaCdDW1xwW-104" value="" style="endArrow=classic;html=1;rounded=0;entryX=0;entryY=0.5;entryDx=0;entryDy=0;" parent="1" target="NKwapGFbjfDaCdDW1xwW-67" edge="1">
          <mxGeometry width="50" height="50" relative="1" as="geometry">
            <mxPoint x="-180" y="830" as="sourcePoint" />
            <mxPoint x="390" y="2320" as="targetPoint" />
          </mxGeometry>
        </mxCell>
        <mxCell id="NKwapGFbjfDaCdDW1xwW-105" value="" style="endArrow=classic;html=1;rounded=0;entryX=0;entryY=0.5;entryDx=0;entryDy=0;" parent="1" target="NKwapGFbjfDaCdDW1xwW-68" edge="1">
          <mxGeometry width="50" height="50" relative="1" as="geometry">
            <mxPoint x="-190" y="840" as="sourcePoint" />
            <mxPoint x="390" y="3120" as="targetPoint" />
          </mxGeometry>
        </mxCell>
        <mxCell id="NKwapGFbjfDaCdDW1xwW-106" value="" style="endArrow=classic;html=1;rounded=0;entryX=0;entryY=0.5;entryDx=0;entryDy=0;" parent="1" target="NKwapGFbjfDaCdDW1xwW-69" edge="1">
          <mxGeometry width="50" height="50" relative="1" as="geometry">
            <mxPoint x="-210" y="840" as="sourcePoint" />
            <mxPoint x="390" y="2820" as="targetPoint" />
          </mxGeometry>
        </mxCell>
      </root>
    </mxGraphModel>
  </diagram>
</mxfile>
